# xmcd CD database file
#
# Track frame offsets:
#	150
#	25266
#	52187
#	75056
#	98482
#	122211
#	150204
#	181026
#	209023
#
# Disc length: 3079 seconds
#
# Revision: 0
# Processed by: cddbd v1.5.2PL0 Copyright (c) Steve Scherf et al.
# Submitted via: CDex 2.00
#
DISCID=620c0509
DTITLE=Eirik Svela - Bits and Pieces
DYEAR=2018
DGENRE=Jazz
TTITLE0=Bits and Pieces
TTITLE1=Next Time We Meet
TTITLE2=Shame (on) Us
TTITLE3=End of Days
TTITLE4=New Arm Rash
TTITLE5=n/a
TTITLE6=In Awe Of
TTITLE7=T.E.
TTITLE8=I'll Be Seeing You
EXTD=YEAR: 2018
EXTT0=
EXTT1=
EXTT2=
EXTT3=
EXTT4=
EXTT5=
EXTT6=
EXTT7=
EXTT8=
PLAYORDER=
